<svg width="94" height="95" viewBox="0 0 94 95" fill="none" xmlns="http://www.w3.org/2000/svg">
<g filter="url(#filter0_d_508_19)">
<path d="M65.79 0.129956C66.4192 0.338864 66.9396 0.789134 67.2369 1.38173C67.5341 1.97433 67.5838 2.66073 67.375 3.28996L64.875 10.79C64.6655 11.4198 64.2143 11.9407 63.6208 12.2379C63.0272 12.5352 62.3399 12.5845 61.71 12.375C61.0801 12.1654 60.5593 11.7143 60.262 11.1207C59.9648 10.5272 59.9155 9.83985 60.125 9.20996L62.625 1.70996C62.7289 1.39829 62.8933 1.11016 63.1086 0.862049C63.3239 0.613934 63.5861 0.410697 63.88 0.263958C64.174 0.117219 64.494 0.0298558 64.8217 0.00686277C65.1494 -0.0161302 65.4785 0.0256981 65.79 0.129956V0.129956ZM84.275 9.26996C84.5071 9.03752 84.6912 8.76164 84.8167 8.45806C84.9422 8.15449 85.0066 7.82918 85.0064 7.50069C85.0062 7.1722 84.9412 6.84698 84.8153 6.54358C84.6894 6.24019 84.5049 5.96457 84.2725 5.73246C84.0401 5.50035 83.7642 5.31629 83.4606 5.1908C83.157 5.0653 82.8317 5.00083 82.5032 5.00107C82.1748 5.0013 81.8495 5.06623 81.5461 5.19215C81.2427 5.31807 80.9671 5.50252 80.735 5.73496L70.735 15.735C70.2796 16.2065 70.0276 16.838 70.0333 17.4935C70.039 18.149 70.3019 18.776 70.7655 19.2395C71.229 19.703 71.856 19.9659 72.5115 19.9716C73.167 19.9773 73.7985 19.7254 74.27 19.27L84.27 9.26996H84.275ZM33.035 10.73C33.7325 9.26111 34.7777 7.98451 36.0799 7.01078C37.3822 6.03705 38.9022 5.39556 40.5083 5.14191C42.1145 4.88826 43.7582 5.0301 45.2972 5.55513C46.8361 6.08016 48.2238 6.97254 49.34 8.15496L82.275 43.055C83.3741 44.2194 84.1775 45.6307 84.6176 47.1702C85.0577 48.7098 85.1217 50.3325 84.8042 51.9019C84.4867 53.4713 83.7969 54.9415 82.793 56.1889C81.7891 57.4363 80.5003 58.4243 79.035 59.07L59.35 67.75C60.0797 70.3524 60.1974 73.0884 59.6939 75.7439C59.1903 78.3994 58.0792 80.9025 56.4475 83.0571C54.8157 85.2118 52.7076 86.9598 50.2879 88.1642C47.8683 89.3687 45.2028 89.997 42.5 90C39.5211 90.0016 36.5911 89.2423 33.9879 87.7941C31.3847 86.3459 29.1945 84.2569 27.625 81.725L21.625 84.37C20.2462 84.9771 18.7164 85.1549 17.2351 84.8802C15.7538 84.6056 14.3895 83.8911 13.32 82.83L7.21001 76.78C6.1052 75.6857 5.36785 74.275 5.10001 72.7432C4.83217 71.2114 5.04708 69.6342 5.71501 68.23L33.035 10.73V10.73ZM32.265 79.675C33.9245 82.044 36.3542 83.7642 39.14 84.5424C41.9257 85.3206 44.8952 85.1086 47.5422 83.9426C50.1891 82.7766 52.3498 80.7287 53.656 78.148C54.9621 75.5672 55.3329 72.6134 54.705 69.79L32.265 79.675V79.675ZM80 25C79.337 25 78.7011 25.2634 78.2322 25.7322C77.7634 26.201 77.5 26.8369 77.5 27.5C77.5 28.163 77.7634 28.7989 78.2322 29.2677C78.7011 29.7366 79.337 30 80 30H87.5C88.163 30 88.7989 29.7366 89.2678 29.2677C89.7366 28.7989 90 28.163 90 27.5C90 26.8369 89.7366 26.201 89.2678 25.7322C88.7989 25.2634 88.163 25 87.5 25H80Z" fill="black"/>
</g>
<defs>
<filter id="filter0_d_508_19" x="0.987915" y="0.000732422" width="93.0121" height="97.9993" filterUnits="userSpaceOnUse" color-interpolation-filters="sRGB">
<feFlood flood-opacity="0" result="BackgroundImageFix"/>
<feColorMatrix in="SourceAlpha" type="matrix" values="0 0 0 0 0 0 0 0 0 0 0 0 0 0 0 0 0 0 127 0" result="hardAlpha"/>
<feOffset dy="4"/>
<feGaussianBlur stdDeviation="2"/>
<feComposite in2="hardAlpha" operator="out"/>
<feColorMatrix type="matrix" values="0 0 0 0 0 0 0 0 0 0 0 0 0 0 0 0 0 0 0.25 0"/>
<feBlend mode="normal" in2="BackgroundImageFix" result="effect1_dropShadow_508_19"/>
<feBlend mode="normal" in="SourceGraphic" in2="effect1_dropShadow_508_19" result="shape"/>
</filter>
</defs>
</svg>
