<svg width="2250" height="2386" viewBox="0 0 2250 2386" fill="none" xmlns="http://www.w3.org/2000/svg">
    <path fill-rule="evenodd" clip-rule="evenodd" d="M1876.86 1602.55L1560.33 2385.35L781.255 2070.84L1057.64 1387.33C1079.81 1332.5 1142.12 1305.94 1196.81 1328.02L1876.86 1602.55ZM579.697 1077.54C794.833 1164.39 898.524 1409.67 811.299 1625.38L810.638 1627.01C723.413 1842.72 478.302 1947.19 263.166 1860.34C48.0304 1773.49 -55.66 1528.22 31.5647 1312.5L32.2251 1310.87C119.451 1095.16 364.562 990.694 579.697 1077.54ZM1340.01 314.507L1063.63 998.015C1041.46 1052.85 979.149 1079.41 924.46 1057.33L244.408 782.796L560.939 0L1340.01 314.507ZM2249.27 681.568L1932.74 1464.36L1252.69 1189.83C1198 1167.75 1171.64 1105.4 1193.81 1050.57L1470.19 367.06L2249.27 681.568Z" fill="url(#paint0_linear_163_2)" />
    <defs>
        <linearGradient id="paint0_linear_163_2" x1="571.727" y1="4.3552" x2="1571.67" y2="2371.65" gradientUnits="userSpaceOnUse">
            <stop stop-color="#255A9E" stop-opacity="0.03" />
            <stop offset="1" stop-color="#2F2CAD" stop-opacity="0.6" />
        </linearGradient>
    </defs>
</svg>