<svg width="902" height="957" viewBox="0 0 902 957" fill="none" xmlns="http://www.w3.org/2000/svg">
<path fill-rule="evenodd" clip-rule="evenodd" d="M752.556 642.541L625.643 956.402L313.275 830.301L424.09 556.249C432.98 534.263 457.963 523.616 479.89 532.467L752.556 642.541ZM232.46 432.039C318.719 466.861 360.293 565.204 325.32 651.693L325.056 652.348C290.083 738.838 191.806 780.723 105.547 745.901C19.289 711.079 -22.2856 612.736 12.687 526.247L12.9518 525.592C47.9248 439.102 146.202 397.218 232.46 432.039ZM537.308 126.101L426.492 400.153C417.602 422.139 392.62 432.786 370.692 423.934L98.0264 313.861L224.939 0L537.308 126.101ZM901.873 273.274L774.96 587.135L502.294 477.061C480.367 468.209 469.798 443.21 478.688 421.224L589.504 147.172L901.873 273.274Z" fill="url(#paint0_linear_212_7)"/>
<defs>
<linearGradient id="paint0_linear_212_7" x1="229.265" y1="1.74621" x2="630.19" y2="950.908" gradientUnits="userSpaceOnUse">
<stop stop-color="#255A9E" stop-opacity="0.03"/>
<stop offset="1" stop-color="#2F2CAD" stop-opacity="0.6"/>
</linearGradient>
</defs>
</svg>
