<svg width="88" height="88" viewBox="0 0 88 88" fill="none" xmlns="http://www.w3.org/2000/svg">
<path d="M12.5 12.5C12.5 9.18479 13.817 6.00537 16.1612 3.66117C18.5054 1.31696 21.6848 0 25 0C28.3152 0 31.4946 1.31696 33.8388 3.66117C36.183 6.00537 37.5 9.18479 37.5 12.5C37.5 15.8152 36.183 18.9946 33.8388 21.3388C31.4946 23.683 28.3152 25 25 25C21.6848 25 18.5054 23.683 16.1612 21.3388C13.817 18.9946 12.5 15.8152 12.5 12.5V12.5ZM54.8688 22.4L55.1313 22.6C57.7831 24.5657 61.1048 25.4026 64.3714 24.9282C67.6381 24.4538 70.5844 22.7065 72.5676 20.0677C74.5507 17.4289 75.4095 14.1128 74.9567 10.8431C74.5038 7.57342 72.7761 4.61557 70.1504 2.61507C67.5248 0.614577 64.2144 -0.266146 60.9418 0.165107C57.6692 0.596361 54.7 2.30458 52.6822 4.91697C50.6644 7.52936 49.7619 10.8338 50.1715 14.1092C50.5812 17.3846 52.2697 20.365 54.8688 22.4V22.4ZM32.925 31.25C33.71 29.7635 34.7868 28.4507 36.0909 27.3899C37.395 26.3292 38.8997 25.5424 40.5149 25.0767C42.1301 24.6109 43.8227 24.4757 45.4914 24.6792C47.16 24.8827 48.7705 25.4206 50.2265 26.2609C51.6824 27.1012 52.954 28.2265 53.965 29.5695C54.976 30.9125 55.7057 32.4457 56.1105 34.0772C56.5153 35.7088 56.5868 37.4053 56.3209 39.0651C56.0549 40.725 55.4568 42.3141 54.5625 43.7375C52.842 46.4758 50.1272 48.4407 46.9884 49.2195C43.8496 49.9982 40.5311 49.5302 37.7302 47.9137C34.9292 46.2972 32.8638 43.658 31.9677 40.5507C31.0717 37.4434 31.4148 34.1097 32.925 31.25V31.25ZM9.375 31.25H26.0625C24.9517 34.4222 24.7102 37.834 25.363 41.131C26.0158 44.4281 27.5392 47.4904 29.775 50H28.125C24.9027 49.9995 21.7591 50.9949 19.1243 52.8499C16.4895 54.7049 14.4924 57.3288 13.4062 60.3625C11.3083 59.5198 9.34405 58.3766 7.575 56.9687C2.875 53.1875 0 47.6 0 40.625C0 38.1386 0.987721 35.754 2.74587 33.9959C4.50403 32.2377 6.8886 31.25 9.375 31.25V31.25ZM59.375 50C62.5964 49.9999 65.7391 50.9956 68.3728 52.8506C71.0065 54.7056 73.0025 57.3293 74.0875 60.3625C76.2125 59.4937 78.1813 58.3625 79.925 56.9687C84.625 53.1875 87.5 47.6 87.5 40.625C87.5 38.1386 86.5123 35.754 84.7541 33.9959C82.996 32.2377 80.6114 31.25 78.125 31.25H61.4375C62.125 33.2062 62.5 35.3125 62.5 37.5C62.5058 42.1132 60.805 46.5655 57.725 50H59.375ZM68.0438 62.05C68.5 63.15 68.75 64.3625 68.75 65.625C68.75 72.6 65.8813 78.1875 61.175 81.9687C56.5438 85.6875 50.3312 87.5 43.75 87.5C37.1688 87.5 30.9562 85.6875 26.325 81.9687C21.625 78.1875 18.75 72.6 18.75 65.625C18.7467 64.3929 18.9869 63.1724 19.4569 62.0334C19.9269 60.8945 20.6173 59.8597 21.4885 58.9885C22.3597 58.1173 23.3945 57.4269 24.5334 56.9569C25.6724 56.4869 26.8929 56.2467 28.125 56.25H59.375C61.2319 56.2496 63.0471 56.8006 64.5904 57.8332C66.1337 58.8658 67.3357 60.3334 68.0438 62.05Z" fill="black"/>
</svg>
