<svg width="32" height="32" viewBox="0 0 32 32" fill="none" xmlns="http://www.w3.org/2000/svg">
<path d="M4.00013 12.983C3.99683 13.1857 4.05521 13.3846 4.16754 13.5534C4.27988 13.7222 4.44086 13.8528 4.62913 13.928L14.2301 17.769L18.0711 27.371C18.1453 27.5567 18.2735 27.7159 18.4391 27.8281C18.6047 27.9402 18.8001 28.0001 19.0001 28H19.0161C19.2187 27.9968 19.4155 27.9322 19.5805 27.8147C19.7455 27.6972 19.8709 27.5324 19.9401 27.342L27.9401 5.342C28.0056 5.16303 28.0186 4.96907 27.9775 4.78296C27.9365 4.59686 27.8431 4.42636 27.7084 4.29154C27.5737 4.15673 27.4033 4.06322 27.2172 4.02202C27.0311 3.98082 26.8372 3.99365 26.6581 4.059L4.65813 12.059C4.4677 12.1284 4.30283 12.254 4.18534 12.4192C4.06784 12.5844 4.00326 12.7813 4.00013 12.984V12.983Z" fill="black"/>
</svg>
