<svg width="28" height="28" viewBox="0 0 28 28" fill="none" xmlns="http://www.w3.org/2000/svg">
<path d="M14 3.5C11.82 3.5 10.189 3.806 9.19 4.069C8.803 4.171 8.51 4.266 8.32 4.334C8.23323 4.36461 8.14721 4.39728 8.062 4.432L8.054 4.436C7.87288 4.51254 7.66894 4.51489 7.48611 4.44255C7.30327 4.3702 7.15616 4.22895 7.07644 4.0492C6.99673 3.86946 6.9908 3.66559 7.05992 3.48151C7.12904 3.29743 7.26768 3.14786 7.446 3.065C7.446 3.065 7.688 2.968 7.45 3.063L7.457 3.06L7.478 3.05L7.551 3.02C7.613 2.996 7.701 2.962 7.816 2.92C8.046 2.84 8.378 2.731 8.81 2.618C9.919 2.326 11.68 2 14 2C16.321 2 18.081 2.326 19.19 2.618C19.622 2.731 19.955 2.839 20.184 2.921C20.2977 2.96155 20.4104 3.0049 20.522 3.051L20.544 3.06L20.55 3.063H20.553V3.064C20.7324 3.14602 20.8722 3.29539 20.9422 3.47977C21.0122 3.66414 21.0068 3.86868 20.9271 4.04909C20.8475 4.2295 20.6999 4.37126 20.5165 4.44368C20.333 4.51609 20.1284 4.51333 19.947 4.436H19.946L19.938 4.432C19.5689 4.2905 19.1923 4.16931 18.81 4.069C17.812 3.806 16.18 3.5 14 3.5ZM4 9.75C4 9.02065 4.28973 8.32118 4.80546 7.80546C5.32118 7.28973 6.02065 7 6.75 7H15.25C15.9793 7 16.6788 7.28973 17.1945 7.80546C17.7103 8.32118 18 9.02065 18 9.75V18.25C18 18.9793 17.7103 19.6788 17.1945 20.1945C16.6788 20.7103 15.9793 21 15.25 21H6.75C6.02065 21 5.32118 20.7103 4.80546 20.1945C4.28973 19.6788 4 18.9793 4 18.25V9.75ZM19 16.48L22.396 19.66C23.194 20.407 24.5 19.84 24.5 18.747V9.253C24.5 8.159 23.194 7.593 22.396 8.341L19 11.52V16.479V16.48ZM9.19 23.93C10.189 24.193 11.82 24.499 14 24.499C16.18 24.499 17.812 24.193 18.81 23.93C19.198 23.828 19.49 23.733 19.681 23.665C19.777 23.631 19.847 23.604 19.891 23.586C19.913 23.577 19.929 23.571 19.938 23.566L19.946 23.564L19.947 23.563C20.1289 23.4825 20.3354 23.4776 20.521 23.5493C20.7065 23.6211 20.856 23.7636 20.9365 23.9455C21.017 24.1274 21.0219 24.3339 20.9502 24.5195C20.8784 24.705 20.7359 24.8545 20.554 24.935H20.553L20.55 24.936L20.544 24.939L20.522 24.949C20.4104 24.9951 20.2977 25.0385 20.184 25.079C19.954 25.159 19.622 25.268 19.191 25.381C18.081 25.673 16.321 25.999 14.001 25.999C11.679 25.999 9.919 25.673 8.81 25.381C8.47455 25.294 8.14292 25.1929 7.816 25.078C7.70227 25.0375 7.58957 24.9941 7.478 24.948L7.457 24.939L7.45 24.936C7.44867 24.9353 7.44733 24.9347 7.446 24.934C7.27054 24.8493 7.13492 24.6997 7.06785 24.5167C7.00079 24.3338 7.00754 24.132 7.08668 23.9539C7.16583 23.7759 7.31114 23.6356 7.49188 23.5629C7.67261 23.4901 7.87457 23.4905 8.055 23.564L8.062 23.567L8.109 23.587C8.154 23.604 8.224 23.631 8.319 23.665C8.51 23.733 8.803 23.828 9.191 23.93H9.19Z" fill="black"/>
</svg>
