<svg width="102" height="94" viewBox="0 0 102 94" fill="none" xmlns="http://www.w3.org/2000/svg">
<path d="M73.3125 41.125C78.5918 41.125 82.875 37.1777 82.875 32.3125C82.875 27.4473 78.5918 23.5 73.3125 23.5C68.0332 23.5 63.75 27.4473 63.75 32.3125C63.75 37.1777 68.0332 41.125 73.3125 41.125Z" fill="black"/>
<path d="M90.0469 11.75H11.9531C8.84531 11.75 6.375 14.0816 6.375 16.9457V77.0543C6.375 79.9184 8.84531 82.25 11.9531 82.25H90.0469C93.1547 82.25 95.625 79.9184 95.625 77.0543V16.9457C95.625 14.0816 93.1547 11.75 90.0469 11.75ZM69.5074 48.0465C68.9098 47.4039 67.9934 46.9082 66.9574 46.9082C65.9414 46.9082 65.2242 47.3488 64.4074 47.9547L60.682 50.8555C59.9051 51.3695 59.2875 51.7184 58.391 51.7184C57.5344 51.7184 56.7574 51.4246 56.1996 50.9656C56.0004 50.8004 55.6418 50.4883 55.343 50.2129L44.625 39.5277C43.8281 38.6832 42.6328 38.1508 41.298 38.1508C39.9633 38.1508 38.7281 38.7566 37.9512 39.5828L12.75 67.5992V19.773C12.9492 18.5246 14.0051 17.625 15.3598 17.625H86.6203C87.9949 17.625 89.1105 18.5613 89.1902 19.8281L89.25 67.6359L69.5074 48.0465Z" fill="black"/>
</svg>
