<svg width="295" height="233" viewBox="0 0 295 233" fill="none" xmlns="http://www.w3.org/2000/svg">
    <path d="M221.226 97.0833C238.674 97.0833 252.83 84.0377 252.83 67.9583C252.83 51.8789 238.674 38.8333 221.226 38.8333C203.778 38.8333 189.622 51.8789 189.622 67.9583C189.622 84.0377 203.778 97.0833 221.226 97.0833Z" fill="black" />
    <path d="M276.533 0H18.4355C8.1643 0 0 7.70599 0 17.1716V215.828C0 225.294 8.1643 233 18.4355 233H276.533C286.804 233 294.968 225.294 294.968 215.828V17.1716C294.968 7.70599 286.804 0 276.533 0ZM208.65 119.959C206.675 117.835 203.647 116.197 200.223 116.197C196.865 116.197 194.495 117.653 191.795 119.655L179.483 129.242C176.915 130.941 174.874 132.094 171.911 132.094C169.08 132.094 166.512 131.123 164.669 129.606C164.01 129.06 162.825 128.029 161.837 127.118L126.415 91.8044C123.781 89.0133 119.831 87.2536 115.419 87.2536C111.008 87.2536 106.926 89.256 104.358 91.9865L21.0692 184.58V26.5159C21.7276 22.3898 25.2171 19.4167 29.6943 19.4167H265.208C269.751 19.4167 273.438 22.5112 273.701 26.6979L273.899 184.701L208.65 119.959Z" fill="black" />
</svg>