<svg width="125" height="100" viewBox="0 0 125 100" fill="none" xmlns="http://www.w3.org/2000/svg">
    <path d="M95.3125 37.4999H65.625V48.4374C65.625 56.1913 59.3164 62.4999 51.5625 62.4999C43.8086 62.4999 37.5 56.1913 37.5 48.4374V24.6874L24.8242 32.3046C21.0547 34.5507 18.75 38.6327 18.75 43.0077V52.246L3.125 61.2695C0.136718 62.9882 -0.898438 66.8163 0.839843 69.8046L16.4648 96.8749C18.1836 99.8632 22.0117 100.879 25 99.1601L45.1953 87.4999H71.875C78.7695 87.4999 84.375 81.8945 84.375 74.9999H87.5C90.957 74.9999 93.75 72.207 93.75 68.7499V56.2499H95.3125C97.9102 56.2499 100 54.1601 100 51.5624V42.1874C100 39.5898 97.9102 37.4999 95.3125 37.4999ZM124.16 30.1952L108.535 3.12493C106.816 0.136644 102.988 -0.878981 100 0.839769L79.8047 12.4999H59.8437C57.5 12.4999 55.2148 13.164 53.2227 14.3945L46.6797 18.4765C44.8437 19.6093 43.75 21.621 43.75 23.7695V48.4374C43.75 52.7538 47.2461 56.2499 51.5625 56.2499C55.8789 56.2499 59.375 52.7538 59.375 48.4374V31.2499H95.3125C101.348 31.2499 106.25 36.1523 106.25 42.1874V47.7538L121.875 38.7304C124.863 36.9921 125.879 33.1835 124.16 30.1952V30.1952Z" fill="white" />
</svg>